<?xml version="1.0" encoding="utf-8"?>
<!-- Generator: Adobe Illustrator 16.2.0, SVG Export Plug-In . SVG Version: 6.00 Build 0)  -->
<!DOCTYPE svg PUBLIC "-//W3C//DTD SVG 1.1//EN" "http://www.w3.org/Graphics/SVG/1.1/DTD/svg11.dtd">
<svg version="1.1" id="Layer_1" xmlns="http://www.w3.org/2000/svg" xmlns:xlink="http://www.w3.org/1999/xlink" x="0px" y="0px"
	 width="288px" height="216px" viewBox="0 0 288 216" enable-background="new 0 0 288 216" xml:space="preserve">
<rect x="42.226" y="21.892" fill="none" width="203.549" height="18.387"/>
<text transform="matrix(1 0 0 1 111.8467 30.7256)" font-family="'CenturyGothic-Bold'" font-size="12">GAME TITLE</text>
<rect x="18" y="65.6" fill="none" stroke="#29ABE2" stroke-miterlimit="10" width="252" height="120.645"/>
<rect x="91.774" y="193.342" fill="none" width="102.258" height="9.032"/>
<text transform="matrix(1 0 0 1 110.7686 198.6426)" font-family="'CenturyGothic'" font-size="7.2">GITHUB | LINKEDIN </text>
<rect x="18" y="39.242" fill="none" stroke="#29ABE2" stroke-miterlimit="10" width="252" height="23.355"/>
<rect x="162.141" y="48.406" fill="none" width="102.258" height="9.032"/>
<text transform="matrix(1 0 0 1 211.7764 53.707)" font-family="'CenturyGothic'" font-size="7.2">HEALTH COUNT</text>
<rect x="25.844" y="48.406" fill="none" width="102.259" height="9.032"/>
<text transform="matrix(1 0 0 1 25.8608 53.7061)" font-family="'CenturyGothic'" font-size="7.2">ITEMS</text>
<rect x="74.516" y="118.646" fill="none" width="136.774" height="22.515"/>
<text transform="matrix(1 0 0 1 92.3398 131.8955)" fill="#919191" font-family="'CenturyGothic-Bold'" font-size="18">C A N V A S</text>
</svg>
