<?xml version="1.0" encoding="utf-8"?>
<!-- Generator: Adobe Illustrator 16.2.0, SVG Export Plug-In . SVG Version: 6.00 Build 0)  -->
<!DOCTYPE svg PUBLIC "-//W3C//DTD SVG 1.1//EN" "http://www.w3.org/Graphics/SVG/1.1/DTD/svg11.dtd">
<svg version="1.1" id="Layer_1" xmlns="http://www.w3.org/2000/svg" xmlns:xlink="http://www.w3.org/1999/xlink" x="0px" y="0px"
	 width="576px" height="432px" viewBox="-144 -108 576 432" enable-background="new -144 -108 576 432" xml:space="preserve">
<rect x="-59.548" y="-68.349" fill="none" width="407.099" height="36.773"/>
<text transform="matrix(1 0 0 1 79.6934 -50.6816)" font-family="'CenturyGothic-Bold'" font-size="24">GAME TITLE</text>
<rect x="-108" y="19.067" fill="none" stroke="#29ABE2" stroke-miterlimit="10" width="504" height="241.29"/>
<rect x="39.548" y="274.551" fill="none" width="204.517" height="18.064"/>
<text transform="matrix(1 0 0 1 77.5371 285.1523)" font-family="'CenturyGothic'" font-size="14.4">GITHUB | LINKEDIN </text>
<rect x="-108" y="-33.648" fill="none" stroke="#29ABE2" stroke-miterlimit="10" width="504" height="46.71"/>
<rect x="180.281" y="-15.32" fill="none" width="204.516" height="18.063"/>
<text transform="matrix(1 0 0 1 279.5527 -4.7188)" font-family="'CenturyGothic'" font-size="14.4">HEALTH COUNT</text>
<rect x="-92.313" y="-15.32" fill="none" width="204.519" height="18.063"/>
<text transform="matrix(1 0 0 1 -92.2783 -4.7207)" font-family="'CenturyGothic'" font-size="14.4">ITEMS</text>
<rect x="5.032" y="125.16" fill="none" width="273.548" height="45.029"/>
<text transform="matrix(1 0 0 1 40.6797 151.6582)" fill="#919191" font-family="'CenturyGothic-Bold'" font-size="36">C A N V A S</text>
</svg>
