<?xml version="1.0" encoding="utf-8"?>
<!-- Generator: Adobe Illustrator 16.2.0, SVG Export Plug-In . SVG Version: 6.00 Build 0)  -->
<!DOCTYPE svg PUBLIC "-//W3C//DTD SVG 1.1//EN" "http://www.w3.org/Graphics/SVG/1.1/DTD/svg11.dtd">
<svg version="1.1" id="Layer_1" xmlns="http://www.w3.org/2000/svg" xmlns:xlink="http://www.w3.org/1999/xlink" x="0px" y="0px"
	 width="432px" height="288px" viewBox="0 0 432 288" enable-background="new 0 0 432 288" xml:space="preserve">
<g>
	<path fill-rule="evenodd" clip-rule="evenodd" fill="#FEFEFE" d="M216.176,252.281c-35.648,0-71.297-0.003-106.945,0.02
		c-0.791,0.001-0.969-0.178-0.969-0.969c0.021-71.367,0.021-142.734,0-214.102c0-0.791,0.178-0.969,0.969-0.969
		c71.367,0.021,142.734,0.021,214.102,0c0.791,0,0.969,0.178,0.969,0.969c-0.021,71.367-0.021,142.734,0,214.102
		c0,0.791-0.178,0.97-0.969,0.969C287.613,252.278,251.895,252.281,216.176,252.281z M208.349,240.722
		c9.845,0.085,18.235-0.858,26.565-2.421c2.064-0.388,4.243-0.44,6.137-1.379c3.523-1.745,7.185-3.199,10.661-5.021
		c4.054-2.123,8.296-3.52,12.816-4.185c2.913-0.428,5.874-0.521,8.749-1.222c4.107-1.001,8.294-1.427,12.504-1.611
		c2.809-0.124,5.264-1.183,7.51-2.727c2.821-1.938,4.618-4.864,6.72-7.468c1.632-2.022,3.139-4.143,5.243-5.703
		c2.672-1.982,5.037-4.229,6.741-7.123c1.168-1.984,1.272-4.166,0.494-6.164c-1.157-2.973-3.251-5.281-6.134-6.824
		c-1.232-0.659-2.405-1.447-3.545-2.263c-3.306-2.366-6.55-4.81-10.157-6.734c-2.006-1.07-3.864-2.406-5.489-4.045
		c-2.451-2.47-4.487-5.142-5.438-8.598c-0.928-3.371-2.018-6.701-3.117-10.025c-1.528-4.616-3.305-9.112-5.301-13.548
		c-3.537-7.858-8.382-14.811-14.191-21.105c-5.693-6.167-12.191-11.336-19.523-15.481c-4.482-2.533-9.084-4.612-14.103-5.902
		c-7.264-1.868-14.383-1.456-21.487,0.624c-0.705,0.207-1.382,0.292-2.056,0.068c-2.019-0.67-4.083-0.948-6.202-0.823
		c-0.57,0.034-0.838-0.13-1.019-0.748c-0.943-3.22-2.633-5.979-5.195-8.196c-5.031-4.352-10.799-5.712-17.226-4.204
		c-4.584,1.077-8.108,3.782-11.125,7.343c-4.631,5.465-5.346,12.973-2.393,19.236c1.576,3.341,3.761,6.306,6.481,8.816
		c1.452,1.339,2.32,2.771,1.875,4.806c-0.126,0.576-0.11,1.188-0.461,1.695c-3.401,4.901-6.31,10.073-8.66,15.561
		c-2.091,4.883-3.979,9.83-5.285,14.991c-0.656,2.594-1.054,5.25-2.632,7.576c-1.983,2.923-4.115,5.604-7.501,6.966
		c-1.342,0.539-2.605,1.209-3.802,2.012c-2.84,1.906-6.014,3.188-8.992,4.833c-2.004,1.107-4.279,1.914-5.508,4.065
		c-1.216,2.128-2.367,4.293-3.552,6.438c-0.805,1.457-1.153,3.073-1.619,4.648c-1.009,3.406,0.599,6.168,2.509,8.627
		c3.429,4.414,7.854,7.672,12.915,10.058c4.04,1.903,8.358,3.059,12.501,4.682c4.799,1.881,9.632,3.751,13.855,6.754
		c6.001,4.268,12.48,7.556,19.428,9.903c4.476,1.512,9.138,2.224,13.832,2.755C199.336,240.246,204.499,240.783,208.349,240.722z
		 M197.917,63.904c-2.33-0.057-4.444,0.816-6.212,2.391c-2.263,2.014-3.297,4.664-3.186,7.659c0.107,2.878,1.482,5.242,3.186,7.541
		c3.361,4.536,9.561,5.57,14.27,3.318c4.489-2.147,6.25-6.524,5.542-10.386C210.302,67.806,204.442,64.538,197.917,63.904z"/>
	<path fill-rule="evenodd" clip-rule="evenodd" fill="#2AC4D5" d="M208.349,240.722c-3.85,0.062-9.012-0.476-14.177-1.06
		c-4.694-0.531-9.356-1.243-13.832-2.755c-6.948-2.348-13.427-5.636-19.428-9.903c-4.223-3.003-9.056-4.873-13.855-6.754
		c-4.143-1.623-8.461-2.778-12.501-4.682c-5.061-2.386-9.486-5.644-12.915-10.058c-1.911-2.459-3.518-5.221-2.509-8.627
		c0.466-1.575,0.814-3.191,1.619-4.648c1.185-2.146,2.336-4.311,3.552-6.438c1.229-2.151,3.504-2.958,5.508-4.065
		c2.978-1.646,6.152-2.927,8.992-4.833c1.197-0.803,2.46-1.473,3.802-2.012c3.386-1.362,5.518-4.043,7.501-6.966
		c1.578-2.326,1.976-4.982,2.632-7.576c1.306-5.161,3.194-10.108,5.285-14.991c2.35-5.488,5.259-10.66,8.66-15.561
		c0.351-0.506,0.334-1.119,0.461-1.695c0.445-2.035-0.422-3.467-1.875-4.806c-2.72-2.51-4.905-5.475-6.481-8.816
		c-2.953-6.263-2.238-13.771,2.393-19.236c3.016-3.561,6.54-6.267,11.125-7.343c6.427-1.509,12.195-0.148,17.226,4.204
		c2.562,2.217,4.252,4.976,5.195,8.196c0.181,0.618,0.449,0.782,1.019,0.748c2.119-0.125,4.184,0.153,6.202,0.823
		c0.674,0.224,1.351,0.138,2.056-0.068c7.104-2.079,14.224-2.491,21.487-0.624c5.019,1.29,9.62,3.369,14.103,5.902
		c7.332,4.145,13.83,9.313,19.523,15.481c5.81,6.294,10.654,13.247,14.191,21.105c1.996,4.436,3.772,8.932,5.301,13.548
		c1.1,3.324,2.189,6.654,3.117,10.025c0.95,3.456,2.986,6.128,5.438,8.598c1.625,1.639,3.483,2.975,5.489,4.045
		c3.607,1.925,6.852,4.368,10.157,6.734c1.14,0.815,2.313,1.604,3.545,2.263c2.883,1.543,4.977,3.852,6.134,6.824
		c0.778,1.998,0.674,4.18-0.494,6.164c-1.704,2.895-4.069,5.141-6.741,7.123c-2.104,1.561-3.611,3.681-5.243,5.703
		c-2.102,2.604-3.898,5.53-6.72,7.468c-2.246,1.544-4.701,2.603-7.51,2.727c-4.21,0.185-8.396,0.61-12.504,1.611
		c-2.875,0.7-5.836,0.794-8.749,1.222c-4.521,0.665-8.763,2.062-12.816,4.185c-3.477,1.821-7.138,3.275-10.661,5.021
		c-1.894,0.938-4.072,0.991-6.137,1.379C226.584,239.863,218.193,240.807,208.349,240.722z M220.504,108.203
		c-1.662-0.084-3.289-0.38-4.993-0.278c-3.229,0.193-6.391,0.552-9.512,1.451c-1.486,0.428-3.046,0.782-4.651,0.324
		c-1.895-0.54-3.833-0.718-5.815-0.728c-1.074-0.005-2.234-0.163-3.219-0.784c-1.275-0.805-2.096-1.954-2.508-3.389
		c-1.116-3.888-3.561-6.603-7.22-8.275c-1.22-0.558-1.29-0.538-1.304,0.774c-0.021,2.007-0.729,3.774-2.292,4.995
		c-3.606,2.817-8.961,3.009-11.675-1.987c-0.346-0.637-0.614-0.633-1.079-0.152c-0.981,1.015-1.836,2.12-2.508,3.359
		c-1.574,2.901-1.953,5.942-1.023,9.126c0.235,1.488,1.046,2.729,1.765,3.998c1.285,2.267,2.97,4.214,4.791,6.079
		c1.342,1.374,2.88,2.685,3.095,4.833c0.095,0.951,0.042,1.896,0.001,2.837c-0.108,2.495-0.821,4.844-2.34,6.823
		c-1.514,1.974-2.783,4.094-3.937,6.267c-3.573,6.729-6.428,13.761-8.424,21.125c-0.513,1.893-1.042,3.805-0.804,5.794
		c0.507,4.235,0.965,8.479,1.662,12.69c0.516,2.596,1.003,5.197,1.568,7.781c0.135,0.621,0.299,1.043-0.409,1.457
		c-0.728,0.425-1.077,0.059-1.506-0.389c-2.089-2.173-4.034-4.456-5.549-7.08c-0.488-0.846-0.712-1.82-1.313-2.607
		c-0.343-0.914-0.708-1.82-1.02-2.745c-0.169-0.502-0.365-0.384-0.662-0.137c-0.563,0.468-1.143,0.916-1.716,1.371
		c-1.642,1.094-3.606,1.607-5.215,2.695c-3.563,2.411-7.507,4.08-11.247,6.143c-0.963,0.53-2.099,0.876-2.694,1.938
		c-1.37,2.445-2.839,4.841-3.914,7.437c-0.647,1.563-0.81,3.063,0.182,4.674c2.375,3.859,5.766,6.563,9.604,8.763
		c4.806,2.755,10.201,4.073,15.306,6.101c3.614,1.434,7.197,2.943,10.606,4.845c2.55,1.421,4.906,3.126,7.331,4.735
		c2.875,1.905,6.006,3.324,9.169,4.67c1.737,0.738,3.463,1.516,5.279,2.053c1.018,0.592,2.177,0.715,3.291,0.978
		c2.954,0.697,5.926,1.296,8.961,1.51c3.027,0.289,6.05,0.774,9.081,0.821c4.224,0.065,8.452,0.409,12.68,0.049
		c1.986-0.168,3.979-0.266,5.963-0.451c3.829-0.357,7.624-0.975,11.404-1.671c1.78-0.327,3.626-0.413,5.296-1.218
		c4.356-2.096,8.694-4.232,13.07-6.288c1.101-0.517,2.216-1.019,3.401-1.378c2.177-0.662,4.433-0.972,6.607-1.621
		c3.99-0.641,8.053-0.796,11.996-1.76c3.647-0.771,7.348-1.148,11.057-1.393c2.074-0.136,3.807-0.957,5.44-2.121
		c2.185-1.905,3.847-4.269,5.609-6.529c1.889-2.423,3.901-4.688,6.383-6.516c1.903-1.402,3.612-2.988,4.79-5.09
		c0.343-0.614,0.428-1.264,0.17-1.813c-0.719-1.535-1.633-2.929-3.197-3.795c-1.501-0.831-2.941-1.765-4.359-2.74
		c-2.053-1.411-3.888-3.127-6.072-4.345c-2.449-1.366-4.91-2.714-7.132-4.436c-0.69-0.535-0.929-0.313-1.094,0.405
		c-0.336,1.465-1.092,2.707-1.978,3.909c-0.984,1.337-2.198,2.449-3.301,3.67c-0.234,0.209-0.459,0.429-0.702,0.628
		c-0.968,0.792-2.204,0.751-3.294,0.738c-0.683-0.01-0.87-1.144-1.228-1.805c-0.19-0.355-0.162-0.722-0.05-1.111
		c0.232-0.803,0.42-1.617,0.625-2.427c0.888-2.034,1.324-4.209,1.865-6.339c0.708-2.789,1.305-5.518,0.145-8.496
		c-1.686-4.323-2.888-8.836-4.287-13.27c-1.97-6.238-4.744-12.127-7.74-17.921c-0.496-0.961-0.996-1.931-1.742-2.737
		c-0.05-0.13-0.077-0.274-0.15-0.389c-3.083-4.8-6.694-9.183-10.721-13.204c-2.478-2.475-5.119-4.794-7.972-6.845
		c-2.1-1.509-4.05-3.253-6.483-4.256c-0.129-0.115-0.242-0.258-0.388-0.342c-2.883-1.666-5.728-3.424-8.853-4.598
		C226.525,109.512,223.559,108.676,220.504,108.203z M173.538,89.817c-3.162,0.012-5.154,1.986-5.153,5.106
		c0,2.973,2.01,4.886,5.12,4.877c2.98-0.009,4.959-2.03,4.958-5.063C178.46,91.729,176.536,89.806,173.538,89.817z"/>
	<path fill-rule="evenodd" clip-rule="evenodd" fill="#2AC4D5" d="M197.917,63.904c6.525,0.634,12.385,3.902,13.599,10.522
		c0.708,3.861-1.053,8.238-5.542,10.386c-4.709,2.252-10.909,1.218-14.27-3.318c-1.704-2.299-3.078-4.663-3.186-7.541
		c-0.111-2.995,0.923-5.645,3.186-7.659C193.473,64.721,195.587,63.847,197.917,63.904z M200.627,83.572
		c2.479-0.159,4.407-1.026,5.633-3.373c1.043-1.998-1.43-6.04-3.293-6.706c-0.415-0.148-0.58,0.05-0.729,0.36
		c-1.423,2.967-5.079,3.686-7.892,2.342c-0.793-0.379-0.689,0.103-0.63,0.503c0.138,0.943,0.487,1.828,0.964,2.65
		C196.021,81.66,197.759,83.422,200.627,83.572z M200.667,68.827c0.026-1.937-1.462-3.442-3.433-3.473
		c-2.229-0.035-4.145,1.592-4.188,3.556c-0.045,2.093,1.648,3.995,3.6,4.041C198.802,73,200.636,71.119,200.667,68.827z"/>
	<path fill-rule="evenodd" clip-rule="evenodd" fill="#0D6B9C" d="M238.646,115.534c2.434,1.004,4.384,2.748,6.483,4.257
		c2.853,2.051,5.494,4.371,7.972,6.845c4.026,4.021,7.638,8.404,10.721,13.204c0.073,0.115,0.101,0.259,0.15,0.389
		c-0.53,0.576-1.225,0.18-1.509-0.079c-0.672-0.613-1.394-0.726-2.212-0.732c-0.158-0.001-0.369-0.069-0.462-0.183
		c-0.571-0.693-1.353-0.63-2.123-0.655c-0.409-0.013-0.87,0.157-1.222-0.148c-1.107-0.959-2.605-1.117-3.87-1.406
		c-1.785-0.408-3.45-1.12-5.193-1.528c-1.517-0.355-3.014-0.8-4.538-1.125c-0.264-0.057-0.576,0.065-0.783-0.197
		c-0.527-0.667-1.271-0.645-2.012-0.653c-0.613-0.007-1.166,0.029-1.726-0.492c-0.525-0.491-1.396-0.531-2.104-0.247
		c-0.765,0.307-0.485,1.068-0.532,1.671c-0.021,0.279,0.047,0.605-0.075,0.829c-1.021,1.872-0.357,3.8-0.196,5.696
		c0.164,1.919,0.497,3.851,0.215,5.754c-0.369,2.485-0.062,4.758,1.221,6.934c0.368,0.625,0.628,0.607,1.125,0.262
		c0.806-0.561,1.63-1.091,2.45-1.628c1.122-0.735,2.265-1.41,3.688-1.265c-0.369,0.795-0.807,1.553-1.035,2.414
		c-0.731,2.76,0.265,5.124,1.726,7.34c2.339,3.547,6.308,5.033,9.839,3.718c2.268-0.844,4.125-2.224,5.293-4.409
		c0.791-0.038,0.93,0.648,1.199,1.137c1.373,2.492,2.468,5.122,3.248,7.841c0.908,3.169,2.197,6.31,1.861,9.708
		c-0.129,1.313-0.013,2.657-0.437,3.938c-0.444,1.346-0.413,1.543,1.027,1.59c2.167,0.07,3.816,1.125,5.45,2.349
		c1.109,0.83,2.18,1.728,3.445,2.331c-0.205,0.81-0.393,1.624-0.625,2.427c-0.112,0.39-0.141,0.756,0.05,1.111
		c0.357,0.661,0.545,1.795,1.228,1.805c1.09,0.013,2.326,0.054,3.294-0.738c0.243-0.199,0.468-0.419,0.702-0.628
		c-0.006,0.469,0.129,0.851,0.447,1.237c0.973,1.187,1.854,2.442,2.69,3.733c1.354,2.094,2.278,4.404,3.393,6.619
		c0.258,0.513,0.476,0.705,1.114,0.525c1.95-0.546,3.985-0.639,5.978-0.968c0.368-0.061,0.601-0.038,0.468,0.371
		c-0.331,1.021-0.446,2.108-1.188,2.991c-1.012,1.206-1.992,2.438-3.137,3.523c-0.466,0.442-0.653,0.891-0.486,1.577
		c0.551,2.264,1.061,4.543,0.668,6.906c-0.045,0.27-0.044,0.568,0.233,0.762c-1.634,1.164-3.366,1.985-5.44,2.121
		c-3.709,0.244-7.409,0.621-11.057,1.393c-0.357-0.961-1.139-1.656-1.6-2.553c-0.177-0.345-0.476-0.389-0.805-0.333
		c-0.65,0.11-1.311,0.195-1.946,0.362c-4.165,1.091-8.385,1.763-12.702,1.73c-0.272-0.002-0.658-0.108-0.779,0.17
		c-0.358,0.824-1.05,0.654-1.698,0.673c-0.227,0.006-0.569-0.095-0.597,0.247c-0.021,0.29,0.293,0.341,0.531,0.411
		c1.304,0.39,2.607,0.782,3.91,1.177c0.346,0.104,0.557-0.046,0.822-0.277c0.607-0.529,2.244-0.404,2.867,0.152
		c-2.175,0.649-4.431,0.959-6.607,1.621c-1.186,0.359-2.301,0.861-3.401,1.378c-4.376,2.056-8.714,4.192-13.07,6.288
		c-1.67,0.805-3.516,0.891-5.296,1.218c-3.78,0.696-7.575,1.313-11.404,1.671c-1.984,0.186-3.977,0.283-5.963,0.451
		c-4.228,0.36-8.457,0.017-12.68-0.049c-3.031-0.047-6.054-0.532-9.081-0.821c-0.065-0.586,0.198-1.091,0.389-1.616
		c0.414-1.146,0.894-2.262,1.213-3.448c0.771-2.863,1.776-5.668,2.267-8.602c0.268-1.604-0.425-3.482-2.465-3.19
		c-0.743,0.106-1.466,0.046-1.994-0.642c-0.211-0.273-0.585-0.21-0.896-0.188c-0.59,0.043-1.113-0.041-1.505-0.548
		c-0.182-0.235-0.456-0.298-0.754-0.303c-1.028-0.017-2.125,0.247-2.919-0.749c-0.093-0.117-0.401-0.102-0.605-0.085
		c-0.662,0.05-1.242-0.047-1.698-0.606c-0.277-0.341-0.713-0.31-1.081-0.192c-0.462,0.148-0.265,0.589-0.291,0.913
		c-0.053,0.66-0.113,1.33-0.136,1.979c-0.059,1.655-0.642,3.322,0.044,4.988c0.163,0.396,0.136,0.911,0.071,1.354
		c-0.417,2.862-0.667,5.766-1.892,8.448c-1.816-0.537-3.542-1.314-5.279-2.053c-3.163-1.346-6.294-2.765-9.169-4.67
		c-2.425-1.609-4.78-3.314-7.331-4.735c-3.409-1.901-6.992-3.411-10.606-4.845c-5.105-2.027-10.5-3.346-15.306-6.101
		c-3.837-2.199-7.228-4.903-9.604-8.763c-0.992-1.61-0.829-3.11-0.182-4.674c1.075-2.596,2.544-4.991,3.914-7.437
		c0.595-1.062,1.73-1.407,2.694-1.938c3.739-2.063,7.684-3.731,11.247-6.143c1.609-1.088,3.573-1.602,5.215-2.695
		c1.027,0.742,2.358,0.799,3.397,1.511c0.601,0.787,0.825,1.762,1.313,2.607c1.515,2.624,3.46,4.907,5.549,7.08
		c0.429,0.447,0.779,0.813,1.506,0.389c0.708-0.414,0.543-0.836,0.409-1.457c-0.564-2.584-1.052-5.186-1.568-7.781
		c0.431,0.021,0.711,0.373,1.153,0.45c2.99,0.521,6.007,0.503,9.01,0.366c2.529-0.115,4.962-0.769,7.144-2.172
		c0.631-0.404,1.197-0.891,2.031-1.014c2.755-0.408,5.487-0.971,8.24-1.395c1.495-0.229,2.866-0.916,4.368-1.074
		c2.701-0.285,5.358-0.702,8.017-1.352c4.291-1.046,8.195-2.766,11.691-5.418c2.209-1.675,4.193-3.562,5.502-6.088
		c0.686-1.323,1.572-2.537,1.689-4.095c0.019-0.253,0.236-0.495,0.376-0.733c1.183-2.023,1.979-4.099,0.887-6.437
		c-0.027-0.062-0.014-0.14-0.031-0.208c-0.893-3.211-0.75-6.667-2.301-9.725c-0.124-0.244-0.165-0.533-0.227-0.806
		c-0.91-4.015-1.092-8.091-1.044-12.188c0.555,0.067,1.162-0.543,1.667,0.102c0.397,0.507,0.921,0.576,1.506,0.538
		c0.312-0.02,0.689-0.083,0.892,0.196c0.581,0.802,1.413,0.628,2.208,0.646c0.445,0.01,0.878-0.05,1.295,0.276
		c1.063,0.83,2.468,0.784,3.671,1.338c0.828,0.382,2.02-0.153,2.779,0.816c0.093,0.118,0.399,0.104,0.604,0.091
		c0.656-0.043,1.209,0.064,1.708,0.584c0.492,0.512,1.213,0.322,1.804,0.198c0.593-0.125,0.416-0.732,0.417-1.164
		c0-0.565,0.021-1.034,0.77-1.126c0.47-0.058,0.541-0.305,0.15-0.705c-0.463-0.476-0.477-1.019,0.211-1.354
		c0.271-0.132,0.33-0.313,0.353-0.576c0.058-0.659,0.107-1.321,0.216-1.973c0.359-2.128,0.561-4.284,1.426-6.309
		C237.685,120.463,238.343,118.042,238.646,115.534z M175.798,200.744c-1.693,0.019-3.15,0.539-4.265,1.892
		c-2.4,2.909-1.281,6.894,1.882,8.426c1.682,0.814,3.552,1.189,5.366,1.679c4.057,1.097,7.239-1.729,7.471-4.828
		c0.11-1.468-0.372-2.747-1.219-3.914c0.498-0.725,0.26-3.44-0.354-4.042c-0.26-0.255-0.612-0.263-0.893-0.173
		c-1.195,0.386-2.328,0.055-3.346-0.445c-1.238-0.607-2.348-0.417-3.585-0.074C175.974,199.509,175.687,199.918,175.798,200.744z
		 M251.087,192.372c0.093-0.201,0.247-0.323,0.454-0.408c1.809-0.733,3.603-1.497,5.419-2.206c1.33-0.521,2.566-1.248,4.015-1.513
		c2.016-0.368,3.32-1.67,4.086-3.556c0.235-0.578,0.074-0.809-0.482-1.005c-1.484-0.519-2.949-1.093-4.42-1.647
		c-2.363-0.891-4.417-2.403-6.743-3.357c-2.501-1.027-4.728-2.471-6.582-4.408c-2.377-2.483-3.981-5.57-6.163-8.212
		c-1.176-1.424-1.439-3.231-2.015-4.891c-0.61-1.757-1.353-3.521-1.153-5.472c0.033-0.32-0.054-0.742-0.37-0.939
		c-0.37-0.23-0.657,0.098-0.927,0.296c-2.764,2.034-5.348,4.284-7.868,6.605c-2.635,2.429-4.998,5.108-7.129,7.983
		c-2.377,3.208-4.523,6.57-6.47,10.059c-0.091,0.163-0.165,0.331-0.059,0.489c0.112,0.168,0.301,0.159,0.473,0.081
		c1.999-0.914,4.233-0.861,6.292-1.537c1.59-0.521,3.236-0.616,4.829-0.121c2.193,0.682,4.413,1.284,6.551,2.155
		c2.426,0.987,4.864,1.972,7.08,3.35c2.689,1.671,5.33,3.444,7.779,5.458c1.002,0.822,2.244,1.471,2.777,2.785
		c-2,0.824-3.994,1.663-6.004,2.467c-0.969,0.389-1.922,0.794-3.031,0.729c-2.448-0.142-4.901-0.056-7.357-0.173
		c-3.555-0.169-7.08-0.416-10.576-1.104c-1.782-0.35-3.443-0.818-4.542-2.445c-1.569-2.324-2.898-4.739-3.585-7.497
		c-0.228-0.913-0.516-1.8-0.629-2.744c-0.044-0.363-0.11-1.208-0.885-0.583c-1.083,0.875-2.296,1.601-3.079,2.822
		c-0.45,0.703-0.997,1.351-1.546,1.983c-3.211,3.706-5.493,7.819-5.833,12.837c-0.043,0.642-0.223,1.292-0.462,1.926
		c-0.701,1.859-1.191,3.786-1.585,5.734c-0.158,0.779-0.007,1.322,0.922,1.547c1.562,0.377,3.093,0.885,4.64,1.327
		c12.277,3.506,24.548,7.026,36.836,10.493c1.428,0.403,2.818,1.254,4.365,0.936c2.665-0.548,5.33-1.127,7.946-1.865
		c2.458-0.693,4.706-1.97,7.114-2.834c1.577-0.566,3.061-1.398,4.561-2.164c0.303-0.154,0.856-0.32,0.513-0.938
		c-0.991-1.781-2.057-3.492-3.595-4.882c-1.157-1.044-2.36-2.023-3.165-3.451c-0.378-0.672-0.767-1.389-1.245-2.034
		c-2.241-3.021-4.963-5.601-7.529-8.322C252.16,193.547,251.511,193.065,251.087,192.372z M221.111,233.72
		c2.897,0.001,5.232-0.444,7.526-1.028c2.687-0.683,5.292-1.683,7.874-2.656c2.934-1.106,5.95-2.09,8.682-3.703
		c0.508-0.3,1.056-0.534,1.59-0.79c0.35-0.168,0.965-0.104,0.855-0.702c-0.094-0.521-0.581-0.658-1.079-0.61
		c-0.663,0.063-1.248-0.043-1.691-0.608c-0.219-0.279-0.565-0.23-0.882-0.24c-0.381-0.012-0.802,0.105-1.135-0.125
		c-1.315-0.914-2.695-0.642-4.107-0.31c-3.545,0.833-7.152,1.155-10.785,1.302c-1.419,0.058-2.845,0.16-4.197,0.748
		c-1.442,0.627-2.921,1.18-4.41,1.687c-2.281,0.774-4.585,1.483-6.88,2.218c-1.113,0.356-1.344,1.231-0.554,2.044
		c0.373,0.383,0.788,0.681,1.271,0.914C215.854,233.143,218.722,233.495,221.111,233.72z M286.615,205.469
		c-1.594,0.486-3.424,0.89-5.129,1.592c-4.239,1.744-8.049,4.396-12.385,5.95c-0.481,0.173-0.506,0.478-0.289,0.913
		c0.961,1.942,1.893,3.899,2.85,5.844c0.345,0.7,0.799,1.066,1.68,0.744c2.462-0.901,4.959-1.708,7.426-2.598
		c1.078-0.389,2.23-0.729,3.15-1.376c1.741-1.225,3.353-2.639,4.858-4.157c0.307-0.311,0.54-0.6,0.449-1.1
		c-0.333-1.829-1.119-3.513-1.64-5.28C287.465,205.589,287.207,205.438,286.615,205.469z"/>
	<path fill-rule="evenodd" clip-rule="evenodd" fill="#0A5D7E" d="M215.02,131.2c-0.048,4.097,0.134,8.173,1.044,12.188
		c0.062,0.272,0.103,0.562,0.227,0.806c1.551,3.058,1.408,6.514,2.301,9.725c0.018,0.068,0.004,0.146,0.031,0.208
		c1.092,2.338,0.296,4.413-0.887,6.437c-0.14,0.238-0.357,0.48-0.376,0.733c-0.117,1.558-1.003,2.771-1.689,4.095
		c-1.309,2.526-3.293,4.413-5.502,6.088c-3.497,2.652-7.401,4.372-11.691,5.418c-2.659,0.649-5.316,1.066-8.017,1.352
		c-1.502,0.158-2.874,0.845-4.368,1.074c-2.753,0.424-5.485,0.986-8.24,1.395c-0.834,0.123-1.4,0.609-2.031,1.014
		c-2.182,1.403-4.615,2.057-7.144,2.172c-3.002,0.137-6.02,0.154-9.01-0.366c-0.442-0.077-0.722-0.43-1.153-0.45
		c-0.697-4.212-1.155-8.455-1.662-12.69c-0.238-1.989,0.291-3.901,0.804-5.794c1.996-7.364,4.851-14.396,8.424-21.125
		c1.154-2.173,2.422-4.293,3.937-6.267c1.519-1.979,2.232-4.328,2.34-6.823c0.041-0.941,0.094-1.886-0.001-2.837
		c-0.215-2.148-1.753-3.459-3.095-4.833c-1.821-1.864-3.506-3.812-4.791-6.079c-0.719-1.269-1.53-2.51-1.765-3.998
		c0.665-0.191,1.341-0.846,2.015-0.159c0.5,0.51,1.042,0.642,1.697,0.583c0.364-0.033,0.707,0.032,0.944,0.338
		c0.366,0.472,0.87,0.613,1.403,0.494c1.569-0.351,2.682,1.211,4.224,0.98c0.133-0.02,0.316,0.25,0.467,0.394
		c0.182,0.173,0.385,0.363,0.637,0.311c1.235-0.255,1.801,0.317,1.907,1.491c-0.072,0.211-0.144,0.422-0.216,0.634
		c-0.925,0.477-1.285,2.066-0.497,2.686c0.35,0.274,0.508,1.274,1.339,0.67c0.354,0.146,0.707,0.291,1.059,0.436
		c0.088,0.811,0.725,0.677,1.205,0.615c0.609-0.08,1.478,0.464,1.744-0.611c0.906-0.205,1.683-0.715,2.529-1.063
		c0.407,0.242,0.735,0.29,1.063-0.187c0.667-0.97,1.554-1.473,2.809-1.307c0.632,0.083,1.251,0.029,1.689,0.609
		c0.155,0.206,0.413,0.308,0.659,0.25c0.974-0.228,1.583,0.677,2.361,0.788c1.535,0.218,0.606,1.398,0.997,2.027
		c0.036,0.057,0.097,0.099,0.146,0.147c-0.002,0.368-0.042,0.728-0.209,1.063c-0.701,0.338-0.686,0.686-0.015,1.044
		c0.07,0.563,0.142,1.127,0.212,1.69c-0.298,0.385-0.411,0.716,0.238,0.829c0.524,0.784,0.801,1.708,1.431,2.438
		c1.767,2.046,4.047,2.692,6.668,2.664c6.03-0.066,10.328-4.186,10.478-10.139c0.378-0.006,0.742,0.033,1.12,0.125
		c1.047,0.254,1.785,1.138,2.846,1.34c-0.174,0.765-0.265,1.537-0.225,2.322c-0.374,1.384-0.446,2.798-0.409,4.222
		C215.02,130.642,215.02,130.921,215.02,131.2z M185.694,161.472c-0.005-0.807-0.087-1.603-0.165-2.405
		c-0.453-4.694-5.188-8.798-10.385-7.612c-4.084,0.93-6.907,3.324-8.16,7.351c-0.721,2.319-0.495,4.695,0.056,7.044
		c1.431,6.096,7.604,8.805,13.357,5.464C184.094,169.166,185.785,165.75,185.694,161.472z"/>
	<path fill-rule="evenodd" clip-rule="evenodd" fill="#0A5D7E" d="M275.732,188.991c-1.266-0.604-2.336-1.501-3.445-2.331
		c-1.634-1.224-3.283-2.278-5.45-2.349c-1.44-0.047-1.472-0.244-1.027-1.59c0.424-1.281,0.308-2.626,0.437-3.938
		c0.336-3.398-0.953-6.539-1.861-9.708c-0.78-2.719-1.875-5.349-3.248-7.841c-0.27-0.488-0.408-1.175-1.199-1.137
		c0.669-1.531,0.822-3.132,0.894-4.799c0.259-6.074-6.504-9.572-10.956-8.529c-2.536,0.595-4.333,2.178-5.76,4.266
		c-1.424-0.146-2.566,0.529-3.688,1.265c-0.82,0.537-1.645,1.067-2.45,1.628c-0.497,0.346-0.757,0.363-1.125-0.262
		c-1.282-2.176-1.59-4.448-1.221-6.934c0.282-1.903-0.051-3.835-0.215-5.754c-0.161-1.896-0.824-3.824,0.196-5.696
		c0.122-0.223,0.054-0.55,0.075-0.829c0.047-0.603-0.232-1.365,0.532-1.671c0.708-0.284,1.578-0.245,2.104,0.247
		c0.56,0.521,1.112,0.485,1.726,0.492c0.741,0.008,1.484-0.014,2.012,0.653c0.207,0.262,0.52,0.141,0.783,0.197
		c1.524,0.325,3.021,0.771,4.538,1.125c1.743,0.408,3.408,1.12,5.193,1.528c1.265,0.29,2.763,0.447,3.87,1.406
		c0.352,0.305,0.813,0.135,1.222,0.148c0.771,0.025,1.552-0.038,2.123,0.655c0.093,0.113,0.304,0.181,0.462,0.183
		c0.818,0.007,1.54,0.12,2.212,0.732c0.284,0.259,0.979,0.655,1.509,0.079c0.746,0.807,1.246,1.776,1.742,2.737
		c2.996,5.794,5.771,11.683,7.74,17.921c1.399,4.434,2.602,8.946,4.287,13.27c1.16,2.979,0.563,5.707-0.145,8.496
		C277.057,184.782,276.62,186.957,275.732,188.991z"/>
	<path fill-rule="evenodd" clip-rule="evenodd" fill="#0D6B9C" d="M192.886,122.765c-0.049-0.048-0.11-0.09-0.146-0.147
		c-0.391-0.629,0.538-1.809-0.997-2.027c-0.778-0.111-1.388-1.016-2.361-0.788c-0.246,0.058-0.503-0.043-0.659-0.25
		c-0.438-0.58-1.057-0.526-1.689-0.609c-1.255-0.166-2.141,0.337-2.809,1.307c-0.328,0.477-0.656,0.429-1.063,0.187
		c0.684-0.832,1.468-1.6,1.876-2.619c0.658-1.642,0.031-2.915-1.121-4.116c-0.613-0.639-1.091-0.902-1.956-0.478
		c-1.54,0.755-2.976,1.693-4.502,2.461c-0.65,0.327-1.17,0.715-1.46,1.385c-0.106-1.174-0.672-1.746-1.907-1.491
		c-0.252,0.052-0.456-0.138-0.637-0.311c-0.151-0.144-0.334-0.414-0.467-0.394c-1.542,0.231-2.655-1.331-4.224-0.98
		c-0.533,0.119-1.038-0.022-1.403-0.494c-0.237-0.306-0.58-0.371-0.944-0.338c-0.654,0.059-1.197-0.073-1.697-0.583
		c-0.674-0.687-1.35-0.032-2.015,0.159c-0.93-3.185-0.551-6.225,1.023-9.126c0.672-1.239,1.527-2.345,2.508-3.359
		c0.465-0.48,0.733-0.484,1.079,0.152c2.714,4.996,8.069,4.804,11.675,1.987c1.563-1.221,2.271-2.988,2.292-4.995
		c0.014-1.312,0.083-1.332,1.304-0.774c3.659,1.672,6.104,4.387,7.22,8.275c0.412,1.435,1.233,2.584,2.508,3.389
		c0.985,0.622,2.145,0.779,3.219,0.784c1.983,0.009,3.921,0.188,5.815,0.728c1.605,0.458,3.165,0.104,4.651-0.324
		c3.121-0.899,6.284-1.258,9.512-1.451c1.704-0.102,3.331,0.194,4.993,0.278c0.05,0.474-0.106,0.892-0.33,1.301
		c-0.654,1.198-1.331,2.385-1.932,3.61c-0.611,1.246-1.294,2.527-1.276,3.929c0.015,1.16,0.544,2.34-0.637,3.249
		c-0.077,0.059,0.007,0.299-0.062,0.402c-0.644,0.959-0.154,2.135-0.614,3.125c-1.061-0.202-1.799-1.086-2.846-1.34
		c-0.378-0.092-0.742-0.131-1.12-0.125c-0.316-0.922-0.479-1.893-1.009-2.746c-3.664-5.894-11.155-4.887-14.714-1.73
		C194.46,119.212,193.598,120.938,192.886,122.765z"/>
	<path fill-rule="evenodd" clip-rule="evenodd" fill="#127EAE" d="M215.654,123.818c0.459-0.99-0.03-2.166,0.614-3.125
		c0.068-0.103-0.016-0.343,0.062-0.402c1.181-0.909,0.651-2.089,0.637-3.249c-0.018-1.402,0.665-2.683,1.276-3.929
		c0.601-1.225,1.277-2.412,1.932-3.61c0.224-0.409,0.38-0.827,0.33-1.301c3.055,0.473,6.021,1.309,8.902,2.391
		c3.125,1.174,5.97,2.932,8.853,4.598c0.146,0.084,0.259,0.227,0.388,0.342c-0.304,2.508-0.962,4.929-1.951,7.246
		c-0.865,2.025-1.066,4.181-1.426,6.309c-0.108,0.652-0.158,1.314-0.216,1.973c-0.022,0.263-0.081,0.444-0.353,0.576
		c-0.688,0.335-0.674,0.877-0.211,1.354c0.391,0.4,0.319,0.646-0.15,0.705c-0.748,0.092-0.77,0.561-0.77,1.126
		c-0.001,0.432,0.176,1.04-0.417,1.164c-0.591,0.124-1.312,0.314-1.804-0.198c-0.499-0.521-1.052-0.627-1.708-0.584
		c-0.204,0.013-0.511,0.026-0.604-0.091c-0.76-0.969-1.951-0.434-2.779-0.816c-1.203-0.554-2.608-0.509-3.671-1.338
		c-0.417-0.326-0.85-0.267-1.295-0.276c-0.795-0.017-1.627,0.156-2.208-0.646c-0.202-0.28-0.58-0.216-0.892-0.196
		c-0.585,0.038-1.108-0.031-1.506-0.538c-0.506-0.645-1.113-0.034-1.667-0.102c0-0.279,0-0.559,0-0.838
		c0.491-0.054,0.926-0.285,0.975-0.777c0.116-1.187,0.316-2.412-0.566-3.445C215.389,125.355,215.479,124.583,215.654,123.818z"/>
	<path fill-rule="evenodd" clip-rule="evenodd" fill="#0A5D7E" d="M290.562,220.246c-0.277-0.193-0.278-0.492-0.233-0.762
		c0.393-2.363-0.117-4.643-0.668-6.906c-0.167-0.687,0.021-1.135,0.486-1.577c1.145-1.086,2.125-2.317,3.137-3.523
		c0.741-0.883,0.856-1.971,1.188-2.991c0.133-0.409-0.1-0.432-0.468-0.371c-1.992,0.329-4.027,0.422-5.978,0.968
		c-0.639,0.18-0.856-0.013-1.114-0.525c-1.114-2.215-2.038-4.525-3.393-6.619c-0.836-1.291-1.718-2.547-2.69-3.733
		c-0.318-0.387-0.453-0.769-0.447-1.237c1.103-1.221,2.316-2.333,3.301-3.67c0.886-1.202,1.642-2.444,1.978-3.909
		c0.165-0.719,0.403-0.94,1.094-0.405c2.222,1.722,4.683,3.069,7.132,4.436c2.185,1.218,4.02,2.934,6.072,4.345
		c1.418,0.976,2.858,1.909,4.359,2.74c1.564,0.866,2.479,2.26,3.197,3.795c0.258,0.549,0.173,1.198-0.17,1.813
		c-1.178,2.102-2.887,3.688-4.79,5.09c-2.481,1.828-4.494,4.093-6.383,6.516C294.408,215.978,292.746,218.341,290.562,220.246z"/>
	<path fill-rule="evenodd" clip-rule="evenodd" fill="#127EAE" d="M182.313,234.789c1.224-2.683,1.474-5.586,1.892-8.448
		c0.065-0.442,0.092-0.957-0.071-1.354c-0.686-1.666-0.103-3.333-0.044-4.988c0.023-0.649,0.083-1.319,0.136-1.979
		c0.026-0.324-0.171-0.765,0.291-0.913c0.368-0.117,0.804-0.148,1.081,0.192c0.456,0.56,1.036,0.656,1.698,0.606
		c0.204-0.017,0.512-0.032,0.605,0.085c0.794,0.996,1.891,0.732,2.919,0.749c0.299,0.005,0.572,0.067,0.754,0.303
		c0.392,0.507,0.916,0.591,1.505,0.548c0.311-0.021,0.686-0.085,0.896,0.188c0.528,0.688,1.251,0.748,1.994,0.642
		c2.041-0.292,2.733,1.587,2.465,3.19c-0.491,2.934-1.497,5.738-2.267,8.602c-0.319,1.187-0.799,2.303-1.213,3.448
		c-0.191,0.525-0.454,1.03-0.389,1.616c-3.036-0.214-6.008-0.813-8.961-1.51C184.49,235.504,183.331,235.381,182.313,234.789z"/>
	<path fill-rule="evenodd" clip-rule="evenodd" fill="#FEFEFE" d="M173.538,89.817c2.998-0.012,4.922,1.911,4.925,4.92
		c0.001,3.033-1.978,5.054-4.958,5.063c-3.11,0.009-5.12-1.904-5.12-4.877C168.384,91.804,170.376,89.829,173.538,89.817z"/>
	<path fill-rule="evenodd" clip-rule="evenodd" fill="#0A5D7E" d="M262.068,225.52c-0.623-0.557-2.26-0.682-2.867-0.152
		c-0.266,0.231-0.477,0.382-0.822,0.277c-1.303-0.395-2.606-0.787-3.91-1.177c-0.238-0.07-0.553-0.121-0.531-0.411
		c0.027-0.342,0.37-0.241,0.597-0.247c0.648-0.019,1.34,0.151,1.698-0.673c0.121-0.278,0.507-0.172,0.779-0.17
		c4.317,0.032,8.537-0.64,12.702-1.73c0.636-0.167,1.296-0.252,1.946-0.362c0.329-0.056,0.628-0.012,0.805,0.333
		c0.461,0.896,1.242,1.592,1.6,2.553C270.121,224.724,266.059,224.879,262.068,225.52z"/>
	<path fill-rule="evenodd" clip-rule="evenodd" fill="#0A5D7E" d="M151.305,182.248c-1.04-0.712-2.371-0.769-3.397-1.511
		c0.573-0.455,1.152-0.903,1.716-1.371c0.297-0.247,0.493-0.365,0.662,0.137C150.597,180.428,150.962,181.334,151.305,182.248z"/>
	<path fill-rule="evenodd" clip-rule="evenodd" fill="#127EAE" d="M200.627,83.572c-2.868-0.15-4.606-1.912-5.947-4.224
		c-0.477-0.822-0.826-1.707-0.964-2.65c-0.059-0.4-0.163-0.882,0.63-0.503c2.813,1.344,6.468,0.625,7.892-2.342
		c0.149-0.311,0.314-0.509,0.729-0.36c1.863,0.667,4.336,4.708,3.293,6.706C205.034,82.546,203.106,83.413,200.627,83.572z"/>
	<path fill-rule="evenodd" clip-rule="evenodd" fill="#FEFEFE" d="M200.667,68.827c-0.03,2.292-1.864,4.173-4.021,4.124
		c-1.951-0.045-3.645-1.947-3.6-4.041c0.043-1.964,1.958-3.591,4.188-3.556C199.205,65.385,200.692,66.89,200.667,68.827z"/>
	<path fill-rule="evenodd" clip-rule="evenodd" fill="#0A5D7E" d="M251.087,192.372c0.424,0.693,1.073,1.175,1.62,1.754
		c2.566,2.722,5.288,5.302,7.529,8.322c0.479,0.646,0.867,1.362,1.245,2.034c0.805,1.428,2.008,2.407,3.165,3.451
		c1.538,1.39,2.604,3.101,3.595,4.882c0.344,0.618-0.21,0.784-0.513,0.938c-1.5,0.766-2.983,1.598-4.561,2.164
		c-2.408,0.864-4.656,2.141-7.114,2.834c-2.616,0.738-5.281,1.317-7.946,1.865c-1.547,0.318-2.938-0.532-4.365-0.936
		c-12.288-3.467-24.56-6.987-36.836-10.493c-1.547-0.442-3.078-0.95-4.64-1.327c-0.929-0.225-1.08-0.768-0.922-1.547
		c0.394-1.948,0.884-3.875,1.585-5.734c0.239-0.634,0.419-1.284,0.462-1.926c0.34-5.018,2.622-9.131,5.833-12.837
		c0.549-0.633,1.096-1.28,1.546-1.983c0.783-1.222,1.996-1.947,3.079-2.822c0.775-0.625,0.841,0.22,0.885,0.583
		c0.114,0.944,0.402,1.831,0.629,2.744c0.687,2.758,2.016,5.173,3.585,7.497c1.099,1.627,2.76,2.096,4.542,2.445
		c3.496,0.688,7.021,0.935,10.576,1.104c2.456,0.117,4.909,0.031,7.357,0.173c1.109,0.064,2.063-0.341,3.031-0.729
		c2.01-0.804,4.004-1.643,6.004-2.467C250.669,192.365,250.878,192.368,251.087,192.372z"/>
	<path fill-rule="evenodd" clip-rule="evenodd" fill="#127EAE" d="M251.087,192.372c-0.209-0.004-0.418-0.007-0.626-0.011
		c-0.533-1.314-1.775-1.963-2.777-2.785c-2.449-2.014-5.09-3.787-7.779-5.458c-2.216-1.378-4.654-2.362-7.08-3.35
		c-2.138-0.871-4.357-1.474-6.551-2.155c-1.593-0.495-3.239-0.4-4.829,0.121c-2.06,0.676-4.294,0.623-6.292,1.537
		c-0.171,0.078-0.361,0.087-0.473-0.081c-0.106-0.158-0.032-0.326,0.059-0.489c1.946-3.488,4.093-6.851,6.47-10.059
		c2.131-2.875,4.494-5.555,7.129-7.983c2.521-2.321,5.104-4.571,7.868-6.605c0.27-0.198,0.557-0.526,0.927-0.296
		c0.316,0.197,0.403,0.619,0.37,0.939c-0.199,1.951,0.543,3.715,1.153,5.472c0.575,1.659,0.839,3.467,2.015,4.891
		c2.182,2.642,3.786,5.729,6.163,8.212c1.854,1.938,4.081,3.381,6.582,4.408c2.326,0.954,4.38,2.467,6.743,3.357
		c1.471,0.555,2.936,1.129,4.42,1.647c0.557,0.196,0.718,0.427,0.482,1.005c-0.766,1.886-2.07,3.188-4.086,3.556
		c-1.448,0.265-2.685,0.992-4.015,1.513c-1.816,0.709-3.61,1.473-5.419,2.206C251.334,192.049,251.18,192.171,251.087,192.372z"/>
	<path fill-rule="evenodd" clip-rule="evenodd" fill="#00222F" d="M244.115,151.035c1.427-2.088,3.224-3.671,5.76-4.266
		c4.452-1.043,11.215,2.455,10.956,8.529c-0.071,1.667-0.225,3.268-0.894,4.799c-1.168,2.186-3.025,3.565-5.293,4.409
		c-3.531,1.315-7.5-0.171-9.839-3.718c-1.461-2.216-2.457-4.58-1.726-7.34C243.309,152.588,243.746,151.83,244.115,151.035z
		 M250.616,148.404c-1.915-0.077-3.448,1.247-3.482,3.006c-0.028,1.498,1.382,2.876,3.002,2.934c1.757,0.063,3.32-1.334,3.4-3.039
		C253.612,149.676,252.405,148.477,250.616,148.404z"/>
	<path fill-rule="evenodd" clip-rule="evenodd" fill="#127EAE" d="M221.111,233.72c-2.39-0.225-5.257-0.577-7.923-1.861
		c-0.483-0.233-0.898-0.531-1.271-0.914c-0.79-0.813-0.559-1.688,0.554-2.044c2.294-0.734,4.599-1.443,6.88-2.218
		c1.489-0.507,2.968-1.06,4.41-1.687c1.353-0.588,2.778-0.69,4.197-0.748c3.633-0.146,7.24-0.469,10.785-1.302
		c1.412-0.332,2.792-0.604,4.107,0.31c0.333,0.23,0.754,0.113,1.135,0.125c0.316,0.01,0.663-0.039,0.882,0.24
		c0.443,0.565,1.028,0.672,1.691,0.608c0.498-0.048,0.985,0.089,1.079,0.61c0.109,0.598-0.506,0.534-0.855,0.702
		c-0.534,0.256-1.082,0.49-1.59,0.79c-2.731,1.613-5.748,2.597-8.682,3.703c-2.582,0.974-5.188,1.974-7.874,2.656
		C226.344,233.275,224.009,233.721,221.111,233.72z"/>
	<path fill-rule="evenodd" clip-rule="evenodd" fill="#127EAE" d="M286.615,205.469c0.592-0.031,0.85,0.12,0.971,0.532
		c0.521,1.768,1.307,3.451,1.64,5.28c0.091,0.5-0.143,0.789-0.449,1.1c-1.506,1.519-3.117,2.933-4.858,4.157
		c-0.92,0.647-2.072,0.987-3.15,1.376c-2.467,0.89-4.964,1.696-7.426,2.598c-0.881,0.322-1.335-0.044-1.68-0.744
		c-0.957-1.944-1.889-3.901-2.85-5.844c-0.217-0.436-0.192-0.74,0.289-0.913c4.336-1.554,8.146-4.206,12.385-5.95
		C283.191,206.358,285.021,205.955,286.615,205.469z"/>
	<path fill-rule="evenodd" clip-rule="evenodd" fill="#2AC4D5" d="M185.032,203.998c0.847,1.167,1.329,2.446,1.219,3.914
		c-0.231,3.1-3.414,5.925-7.471,4.828c-1.814-0.489-3.684-0.864-5.366-1.679c-3.163-1.532-4.282-5.517-1.882-8.426
		c1.115-1.353,2.572-1.873,4.265-1.892c1.809,0.083,3.423,0.979,5.182,1.25C182.557,202.237,183.919,202.849,185.032,203.998z"/>
	<path fill-rule="evenodd" clip-rule="evenodd" fill="#0A5D7E" d="M185.032,203.998c-1.113-1.149-2.476-1.761-4.053-2.004
		c-1.758-0.271-3.373-1.167-5.182-1.25c-0.111-0.826,0.176-1.235,1.057-1.48c1.237-0.343,2.348-0.533,3.585,0.074
		c1.018,0.5,2.151,0.831,3.346,0.445c0.28-0.09,0.633-0.082,0.893,0.173C185.292,200.558,185.53,203.273,185.032,203.998z"/>
	<path fill-rule="evenodd" clip-rule="evenodd" fill="#00222F" d="M185.694,161.472c0.091,4.278-1.601,7.694-5.296,9.841
		c-5.753,3.341-11.927,0.632-13.357-5.464c-0.551-2.349-0.777-4.725-0.056-7.044c1.252-4.026,4.076-6.421,8.16-7.351
		c5.198-1.186,9.932,2.918,10.385,7.612C185.607,159.869,185.689,160.665,185.694,161.472z M177.716,155.969
		c0.06-1.72-1.215-3.083-2.965-3.168c-1.732-0.085-3.176,1.199-3.243,2.885c-0.068,1.727,1.229,3.111,2.958,3.156
		C176.235,158.888,177.658,157.63,177.716,155.969z"/>
	<path fill-rule="evenodd" clip-rule="evenodd" fill="#2AC4D5" d="M192.886,122.765c0.712-1.827,1.574-3.553,3.079-4.888
		c3.56-3.156,11.051-4.163,14.714,1.73c0.53,0.853,0.693,1.823,1.009,2.746c-0.15,5.954-4.447,10.073-10.478,10.139
		c-2.621,0.029-4.901-0.618-6.668-2.664c-0.63-0.729-0.907-1.654-1.432-2.438c-0.028-0.291,0.034-0.607-0.237-0.83
		c-0.071-0.563-0.142-1.126-0.212-1.69c0.005-0.348,0.01-0.696,0.015-1.044C192.844,123.493,192.883,123.133,192.886,122.765z
		 M196.402,123.479c-0.013,2.688,2.026,4.759,4.693,4.767c2.813,0.008,5.708-2.807,5.716-5.56c0.008-2.65-2.06-4.761-4.701-4.796
		C199.139,117.851,196.417,120.516,196.402,123.479z"/>
	<path fill-rule="evenodd" clip-rule="evenodd" fill="#127EAE" d="M175.999,117.072c0.291-0.669,0.81-1.058,1.46-1.385
		c1.527-0.769,2.962-1.706,4.502-2.461c0.864-0.424,1.342-0.162,1.956,0.478c1.152,1.201,1.779,2.474,1.121,4.116
		c-0.408,1.019-1.192,1.787-1.876,2.619c-0.846,0.348-1.624,0.858-2.529,1.063c-0.983-0.001-1.966-0.002-2.949-0.003
		c-0.353-0.146-0.706-0.291-1.059-0.436c-0.958-0.826-1.331-1.813-0.847-3.043c0.036-0.091,0.005-0.208,0.005-0.312
		C175.855,117.495,175.927,117.283,175.999,117.072z"/>
	<path fill-rule="evenodd" clip-rule="evenodd" fill="#0D6B9C" d="M215.429,126.14c0.883,1.033,0.683,2.258,0.566,3.445
		c-0.049,0.492-0.484,0.723-0.975,0.777C214.983,128.938,215.055,127.524,215.429,126.14z"/>
	<path fill-rule="evenodd" clip-rule="evenodd" fill="#0D6B9C" d="M175.783,117.706c0,0.104,0.03,0.221-0.005,0.312
		c-0.483,1.23-0.111,2.217,0.847,3.043c-0.831,0.604-0.989-0.396-1.339-0.67C174.498,119.772,174.858,118.183,175.783,117.706z"/>
	<path fill-rule="evenodd" clip-rule="evenodd" fill="#0D6B9C" d="M177.684,121.498c0.983,0.001,1.966,0.002,2.949,0.003
		c-0.267,1.076-1.135,0.532-1.744,0.611C178.409,122.175,177.771,122.308,177.684,121.498z"/>
	<path fill-rule="evenodd" clip-rule="evenodd" fill="#0D6B9C" d="M192.676,123.828c-0.005,0.348-0.01,0.696-0.015,1.044
		C191.991,124.514,191.976,124.166,192.676,123.828z"/>
	<path fill-rule="evenodd" clip-rule="evenodd" fill="#0D6B9C" d="M192.874,126.562c0.271,0.222,0.209,0.539,0.237,0.83
		C192.463,127.278,192.575,126.947,192.874,126.562z"/>
	<path fill-rule="evenodd" clip-rule="evenodd" fill="#2AC4D5" d="M250.616,148.404c1.789,0.072,2.996,1.271,2.92,2.9
		c-0.08,1.705-1.644,3.103-3.4,3.039c-1.62-0.058-3.03-1.436-3.002-2.934C247.168,149.651,248.701,148.327,250.616,148.404z"/>
	<path fill-rule="evenodd" clip-rule="evenodd" fill="#2AC4D5" d="M177.716,155.969c-0.058,1.661-1.481,2.919-3.25,2.873
		c-1.729-0.045-3.026-1.43-2.958-3.156c0.066-1.686,1.511-2.97,3.243-2.885C176.501,152.886,177.776,154.249,177.716,155.969z"/>
	<path fill-rule="evenodd" clip-rule="evenodd" fill="#FEFEFE" d="M196.402,123.479c0.014-2.963,2.736-5.628,5.709-5.589
		c2.641,0.035,4.709,2.146,4.701,4.796c-0.009,2.753-2.903,5.568-5.716,5.56C198.428,128.238,196.39,126.167,196.402,123.479z"/>
</g>
</svg>
