<?xml version="1.0" encoding="utf-8"?>
<!-- Generator: Adobe Illustrator 16.2.0, SVG Export Plug-In . SVG Version: 6.00 Build 0)  -->
<!DOCTYPE svg PUBLIC "-//W3C//DTD SVG 1.1//EN" "http://www.w3.org/Graphics/SVG/1.1/DTD/svg11.dtd">
<svg version="1.1" xmlns="http://www.w3.org/2000/svg" xmlns:xlink="http://www.w3.org/1999/xlink" x="0px" y="0px" width="882px"
	 height="150px" viewBox="0 0 882 150" enable-background="new 0 0 882 150" xml:space="preserve">
<g id="Layer_1">
	<path fill="#80D2F5" stroke="#000000" stroke-miterlimit="10" d="M529.059,125.937c-2.227,0-5.344-1.698-7.764-4.531
		c-3.006-3.519-5.049-10.909-5.691-19.437c-0.807-10.624-0.807-10.624,1.33-20.403c1.139-5.198,26.438-9.713,33.975-4.588
		c2.311,1.572,2.303,6.173,2.164,9.722c-0.059,1.564-0.059,1.564-0.443,4.279c4.818,0.373,9.543,1.487,13.688,3.466
		c0.555,0.266,4.352-3.379,9.68-8.864c0.611-0.63-7.211-9.138-6.563-9.814c0.594-0.617,9.654,6.604,10.275,5.955
		c15.246-15.963,38.137-41.135,39.316-40.14c1.176,0.992-19.215,27.978-32.139,45.939c-0.559,0.775,8.4,7.591,7.871,8.328
		c-0.713,1-10.898-4.095-11.549-3.174c-4.189,5.941-6.9,10.097-6.582,10.595c7.754,12.183-0.141,22.667-6.9,22.667
		c-2.377,0-21.043,0-21.043,0S532.412,125.937,529.059,125.937z"/>
	<path opacity="0.7" fill="#4C6BB3" d="M544.561,109.607c3.904-6.746,5.475-12.615,8.074-18.999c0.037-0.308,0.09-0.605,0.17-0.882
		c0.205-1.498,0.221-1.759,0.268-3.027c0.139-3.549,0.146-8.149-2.164-9.722c-7.537-5.125-32.836-0.61-33.975,4.588
		c-2.137,9.779-2.137,9.779-1.33,20.403c0.643,8.527,2.686,15.918,5.691,19.437c2.42,2.833,5.537,4.531,7.764,4.531h1.643
		c0,0,3.551,0,6.836,0c2.031-2.55-1.951-1.126-0.221-3.879C537.951,121.052,543.973,110.621,544.561,109.607z"/>
	<path fill="#80D2F5" d="M549.734,78.631c-3.313-1.755-10.098-2.375-12.861-2.2c-4.938,0.309-11.072,1.24-14.994,3.621
		c-0.428,1.812-1.617,3.412-3.572,4.054c-0.506,1.472-0.725,3.322-0.926,4.655c-1.184,7.898-0.912,16.354,1.082,24.172
		c0.641,2.504,2.104,5.342,4.148,7.386c3.541-0.648,7.273-0.296,10.77,0.899c4.422-4.047,11.639-15.541,12.953-18.521
		c2.482-5.634,5.287-14.783,5.412-19.85C550.508,81.806,549.836,80.241,549.734,78.631z"/>
	<path fill="#FFFFFF" stroke="#D41C5A" stroke-width="0.75" stroke-miterlimit="10" d="M574.357,107.861"/>
	<path opacity="0.4" fill="#EDEDED" d="M574.506,104.282c-1.764,0.935-4.488-3.156-11.945-6.643c-7.365-3.439-10.766-2-10.762-4.432
		c0.002-0.474,6.383-1.048,13.639,2.612C572.033,99.146,574.922,104.059,574.506,104.282z"/>
	<g>
		<path fill-rule="evenodd" clip-rule="evenodd" fill="#80D2F5" stroke="#000000" stroke-miterlimit="10" d="M346.681,126.387
			c-4.172-0.342-8.141-0.743-11.526-3.392c-4.326-3.383-4.983-11.7-1.126-15.473c1.742-1.708,3.844-2.07,6.151-1.618
			c2.773,0.54,5.115,2.148,7.708,3.134c0.635,0.242,1.29,0.427,1.922,0.676c0.75,0.296,1.49,0.427,1.917-0.429
			c0.411-0.824-0.339-1.232-0.808-1.685c-1.229-1.184-2.875-1.566-4.388-2.192c-2.459-1.013-4.886-2.085-7.296-3.223
			c-5.683-2.68-8.248-9.118-6.901-15.549c1.214-5.803,4.578-9.841,10.104-11.901c6.847-2.554,13.847-2.965,20.858-0.668
			c6.504,2.131,8.135,10.608,5.743,15.029c-1.417,2.618-4.663,3.844-8.154,2.881c-2.839-0.779-5.649-1.663-8.479-2.474
			c-0.759-0.219-1.541-0.369-2.323-0.491c-0.821-0.126-1.669-0.104-1.91,0.908c-0.225,0.947,0.523,1.333,1.232,1.569
			c2.794,0.932,5.623,1.766,8.404,2.731c2.201,0.763,4.27,1.799,6.191,3.161c4.991,3.538,5.937,8.55,4.95,14.068
			c-0.809,4.522-2.979,8.387-6.694,11.315c-1.963,1.546-4.246,2.136-6.562,2.655C352.692,126.098,349.598,126.006,346.681,126.387z"
			/>
		<path fill-rule="evenodd" clip-rule="evenodd" fill="#80D2F5" stroke="#000000" stroke-miterlimit="10" d="M423.193,92.843
			c1.35-0.874,2.375-1.963,3.743-2.52c4.012-1.631,7.976-0.759,10.796,2.57c0.927,1.097,1.41,1.117,2.432,0.085
			c3.641-3.672,8.151-4.747,13.011-3.324c5.046,1.479,8.022,5.154,9.171,10.265c1.394,6.198,1.387,12.421-0.039,18.602
			c-0.521,2.262-1.449,4.441-2.993,6.232c-1.375,1.597-3.175,1.859-5.122,1.174c-1.724-0.606-3.172-1.43-3.479-3.519
			c-0.438-2.997,0.316-5.874,0.637-8.802c0.24-2.171,0.78-4.402-0.411-6.507c-1.034-1.827-2.674-2.78-4.259-2.445
			c-1.636,0.346-2.93,1.802-3.045,3.855c-0.143,2.554-0.058,5.122-0.063,7.686c-0.002,1.024,0.009,2.049,0.028,3.075
			c0.095,5.657-3.747,7.367-8.281,7.012c-3.445-0.27-4.838-1.905-5.312-5.281c-0.281-2.007-0.053-3.969,0.063-5.948
			c0.125-2.159,0.313-4.312-0.3-6.448c-0.598-2.07-1.74-3.42-3.087-3.457c-1.647-0.043-3.076,1.281-3.65,3.482
			c-0.893,3.431-0.549,6.91-0.148,10.348c0.448,3.851-0.45,5.764-3.454,6.548c-3.976,1.039-7.275-0.344-8.542-3.578
			c-1.302-3.327-1.688-6.812-1.771-10.344c-0.144-6.033-0.189-12.06,1.347-17.969c1.383-5.316,6.957-6.241,10.669-4.811
			C422.695,89.426,422.9,91.175,423.193,92.843z"/>
		<path fill-rule="evenodd" clip-rule="evenodd" fill="#80D2F5" stroke="#000000" stroke-miterlimit="10" d="M484.873,89.046
			c4.594-0.021,8.875,0.933,12.535,3.949c4.713,3.881,4.16,9.363,1.238,13.556c-2.285,3.274-5.709,3.68-9.271,3.444
			c-1.971-0.129-3.953-0.405-5.865-1.018c-0.906-0.288-1.871-0.359-2.399,0.658c-0.547,1.052-0.711,2.171,0.06,3.221
			c0.69,0.939,1.654,1.246,2.714,0.833c0.786-0.303,1.529-0.764,2.22-1.255c1.305-0.938,2.789-1.253,4.332-1.313
			c4.203-0.161,6.523,3.399,5.088,7.628c-1.111,3.27-3.32,5.355-6.551,6.378c-3.91,1.236-7.879,1.566-11.9,0.542
			c-5.593-1.424-8.759-5.27-10.113-10.613c-1.735-6.862-0.695-13.401,3.059-19.446c2.137-3.444,5.302-5.362,9.257-6.065
			C481.127,89.214,482.981,88.953,484.873,89.046z"/>
		<path fill-rule="evenodd" clip-rule="evenodd" fill="#80D2F5" stroke="#000000" stroke-miterlimit="10" d="M372.266,103.731
			c0.027-8.06,0.054-16.142,1.485-24.11c0.748-4.17,4.049-6.813,7.754-6.353c3.485,0.434,5.213,2.937,6.412,5.884
			c1.221,2.997,1.293,6.191,1.418,9.376c0.399,10.259-0.27,20.408-3.156,30.311c-0.734,2.516-1.809,4.924-4.125,6.475
			c-3.041,2.03-6.59,0.867-7.907-2.545c-1.328-3.442-1.696-7.054-1.855-10.685C372.169,109.306,372.266,106.517,372.266,103.731z"/>
		<path fill-rule="evenodd" clip-rule="evenodd" fill="#80D2F5" stroke="#000000" stroke-miterlimit="10" d="M391.689,107.91
			c-0.083-4.382,0.237-8.563,0.845-12.729c0.51-3.489,3.211-5.782,6.892-5.724c3.256,0.054,6.088,2.646,6.473,5.879
			c0.557,4.673,0.983,9.365,0.765,14.061c-0.185,3.948-0.141,7.958-1.565,11.756c-0.799,2.135-1.953,4.024-4.207,4.795
			c-3.75,1.282-7.554-1.553-8.316-6.006C391.882,115.899,391.572,111.837,391.689,107.91z"/>
		<path fill-rule="evenodd" clip-rule="evenodd" fill="#80D2F5" stroke="#000000" stroke-miterlimit="10" d="M404.352,80.477
			c-0.232,4.842-3.779,8.828-8.299,7.908c-3.152-0.643-4.857-3.075-4.055-6.19c0.931-3.621,3.798-6.038,7.502-6.328
			C402.371,75.643,404.352,77.525,404.352,80.477z"/>
		<path opacity="0.4" fill-rule="evenodd" clip-rule="evenodd" fill="#EDEDED" d="M348.082,77.751
			c-0.035,1.014-0.51,1.904-1.068,2.652c-2.562,3.439-5.875,5.818-10.144,6.659c-2.148,0.423-3.077-0.648-2.387-2.66
			c1.285-3.737,6.742-9.408,11.232-8.972C347.24,75.579,348.107,76.342,348.082,77.751z"/>
		<path opacity="0.4" fill-rule="evenodd" clip-rule="evenodd" fill="#EDEDED" d="M452.398,91.298
			c2.905-0.021,7.275,4.017,7.482,6.934c0.092,1.297-0.803,1.676-1.834,1.697c-3.009,0.063-7.215-3.56-7.649-6.517
			C450.209,92.136,450.994,91.307,452.398,91.298z"/>
		<path opacity="0.4" fill-rule="evenodd" clip-rule="evenodd" fill="#EDEDED" d="M471.217,101.161
			c-1.465,0.025-2.104-0.658-1.548-2.021c1.5-3.678,3.922-6.529,7.868-7.72c1.65-0.499,2.956,0.701,2.656,2.277
			C479.599,96.812,474.438,101.105,471.217,101.161z"/>
		<path fill-rule="evenodd" clip-rule="evenodd" fill="#FFFFFF" stroke="#000000" stroke-miterlimit="10" d="M485.422,97.303
			c1.088,0.088,2.262,0.397,3.271,1.224c0.887,0.725,1.596,1.594,1.334,2.755c-0.271,1.213-1.215,1.843-2.473,2
			c-3.11,0.393-4.666-0.745-5.098-2.467C481.922,98.679,483.046,97.225,485.422,97.303z"/>
		<path opacity="0.4" fill-rule="evenodd" clip-rule="evenodd" fill="#EDEDED" d="M387.496,82.592
			c0.067,1.251-0.599,1.632-1.702,1.505c-2.845-0.327-6.414-4.993-5.964-7.791c0.299-1.847,2.27-2.444,3.994-1.125
			C386.251,77.038,386.937,79.796,387.496,82.592z"/>
		<path opacity="0.4" fill-rule="evenodd" clip-rule="evenodd" fill="#EDEDED" d="M405.202,96.84c-0.2,1.07-0.134,2.418-1.53,3.05
			c-1.362,0.616-2.412-0.078-3.416-0.87c-1.544-1.216-2.395-2.867-2.775-4.748c-0.238-1.172,0.044-2.304,1.029-3.063
			c0.893-0.689,1.953-0.523,2.923-0.146C403.547,91.88,405.225,94.439,405.202,96.84z"/>
	</g>
	<linearGradient id="SVGID_1_" gradientUnits="userSpaceOnUse" x1="568.4766" y1="99.6309" x2="612.5642" y2="55.5432">
		<stop  offset="0" style="stop-color:#FFFFFF;stop-opacity:0"/>
		<stop  offset="0.0295" style="stop-color:#EEF1F7;stop-opacity:0.0295"/>
		<stop  offset="0.1226" style="stop-color:#BFC8E2;stop-opacity:0.1226"/>
		<stop  offset="0.2212" style="stop-color:#94A3CE;stop-opacity:0.2212"/>
		<stop  offset="0.3235" style="stop-color:#7184BE;stop-opacity:0.3235"/>
		<stop  offset="0.4308" style="stop-color:#546CB1;stop-opacity:0.4308"/>
		<stop  offset="0.5446" style="stop-color:#3D58A7;stop-opacity:0.5446"/>
		<stop  offset="0.6679" style="stop-color:#2D4BA0;stop-opacity:0.6679"/>
		<stop  offset="0.8078" style="stop-color:#24439B;stop-opacity:0.8078"/>
		<stop  offset="1" style="stop-color:#21409A"/>
	</linearGradient>
	<path opacity="0.4" fill="url(#SVGID_1_)" d="M609.783,52.767c-1.209-0.618-30.123,29.682-30.123,29.682l-9.637-6.165l6.498,9.155
		c0,0-7.357,6.564-9.086,8.413c-0.738,0.789-1.896,0.28-3.008-0.234c-0.92-0.426,2.674,4.648,4.748,6.713
		c1.289,1.117,6.873,5.379,8.85,5.459c0.521,0.021-1.02-2.335-1.305-2.729c-0.67-0.923,6.445-10.977,6.445-10.977l11.113,3.544
		l-7.393-8.106C586.887,87.521,610.992,53.386,609.783,52.767z"/>
	<path fill="none" stroke="#000000" stroke-miterlimit="10" d="M529.059,125.937c-2.227,0-5.344-1.698-7.764-4.531
		c-3.006-3.519-5.049-10.909-5.691-19.437c-0.807-10.624-0.807-10.624,1.33-20.403c1.139-5.198,26.438-9.713,33.975-4.588
		c2.311,1.572,2.303,6.173,2.164,9.722c-0.059,1.564-0.059,1.564-0.443,4.279c4.818,0.373,9.543,1.487,13.688,3.466
		c0.555,0.266,4.352-3.379,9.68-8.864c0.611-0.63-7.211-9.138-6.563-9.814c0.594-0.617,9.654,6.604,10.275,5.955
		c15.246-15.963,38.137-41.135,39.316-40.14c1.176,0.992-19.215,27.978-32.139,45.939c-0.559,0.775,8.4,7.591,7.871,8.328
		c-0.713,1-10.898-4.095-11.549-3.174c-4.189,5.941-6.9,10.097-6.582,10.595c7.754,12.183-0.141,22.667-6.9,22.667
		c-2.377,0-21.043,0-21.043,0S532.412,125.937,529.059,125.937z"/>
	<path opacity="0.4" fill="#EDEDED" d="M523.283,88.464c1.969-4.113,4.563-6.968,3.563-7.445c-0.998-0.48-5.217,1.599-7.184,5.71
		c-1.969,4.112-0.945,8.7,0.057,9.179C520.719,96.386,521.313,92.574,523.283,88.464z"/>
	<circle cx="559.262" cy="107.861" r="2.643"/>
	<path fill-rule="evenodd" clip-rule="evenodd" fill="#FAF289" d="M569.342,95.64c0.201,1.687,0.295,3.405,0.598,5.113
		c0.32,1.809,1.42,2.816,3.027,3.439c0.207,0.079,0.414,0.152,0.957,0.351c-3.439,0.391-4.539,2.553-4.934,5.416
		c-0.412-2.712-0.771-5.386-4.275-5.694c0.205-0.076,0.404-0.176,0.619-0.225c2.303-0.512,3.26-2.161,3.568-4.304
		C569.102,98.378,569.199,97.006,569.342,95.64"/>
	<rect x="262.925" y="34.354" fill="none" width="192.204" height="27.564"/>
	<text transform="matrix(1 0 0 1 262.9253 53.1338)" font-family="'Quicksand'" font-size="25.5166">The Legend of</text>
</g>
<g id="S">
</g>
</svg>
